{"title":"Fred Zinnemann - Julia (1977)","uid":5889811,"size":1449922345,"categoryP":"video","categoryS":"movies","magnet":"?xt=urn:btih:a6cfb9a7210ec4790b54ab88507ce105df6ecf16&amp;dn=Fred+Zinnemann+-+Julia+%281977%29&amp;tr=udp%3A%2F%2Ftracker.openbittorrent.com%3A80&amp;tr=udp%3A%2F%2Fopen.demonii.com%3A1337&amp;tr=udp%3A%2F%2Ftracker.coppersurfer.tk%3A6969&amp;tr=udp%3A%2F%2Fexodus.desync.com%3A6969","seeders":3,"leechers":3,"uploader":"mfccorrea","files":4,"time":1287198830,"description":"The film traces the lifelong relationship between playwright Lillian Hellman and Julia, a wealthy girl who turns her back on her upbringing to follow her ideals. In the 1930s, while the adult Hellman (Jane Fonda) struggles to establish herself as a playwright with the help of her lover, Dashiell Hammett (Jason Robards), Julia (Vanessa Redgrave) battles the exigencies of the Nazi regime. Visiting Julia in Germany, Lillian realizes how much her friend's idealism has cost her, both physically and financially. Lillian is asked by Julia's friend Johann (Maximilian Schell) to smuggle a large sum of money from Paris to Germany, the better to combat the Nazis from within.\n\n   General\n      Complete name : Julia.avi\n      Format : AVI\n      Format/Info : Audio Video Interleave\n      File size : 1.35 GiB\n      Duration : 1h 57mn\n      Overall bit rate : 1 646 Kbps\n      Movie name : Julia (1977)\n      Writing library : VirtualDub build 32661/release\n   Video #0\n      ID : 0\n      Format : MPEG-4 Visual\n      Format profile : AdvancedSimple@L5\n      Format settings, BVOP : Yes\n      Format settings, QPel : No\n      Format settings, GMC : No warppoints\n      Format settings, Matrix : Custom\n      Codec ID : XVID\n      Codec ID/Hint : XviD\n      Duration : 1h 57mn\n      Bit rate : 1 509 Kbps\n      Width : 704 pixels\n      Height : 384 pixels\n      Display aspect ratio : 16:9\n      Frame rate : 23.976 fps\n      Resolution : 24 bits\n      Colorimetry : 4:2:0\n      Scan type : Progressive\n      Bits/(Pixel*Frame) : 0.233\n      Stream size : 1.24 GiB (92%)\n      Writing library : XviD 1.2.1 (UTC 2008-12-04)\n   Audio #1\n      ID : 1\n      Format : MPEG Audio\n      Format version : Version 1\n      Format profile : Layer 3\n      Codec ID : 55\n      Codec ID/Hint : MP3\n      Duration : 1h 57mn\n      Bit rate mode : Constant\n      Bit rate : 128 Kbps\n      Channel(s) : 2 channels\n      Sampling rate : 48.0 KHz\n      Resolution : 16 bits\n      Stream size : 107 MiB (8%)\n      Alignment : Aligned on interleaves\n      Interleave, duration : 42 ms (1.00 video frame)\n      Interleave, preload duration : 504 ms\n      Writing library : LAME3.98.2\n &lt;a href=&quot;\nhttp://www.imdb.com/title/tt0076245/&quot; rel=&quot;nofollow&quot; target=&quot;_NEW&quot;&gt;\nhttp://www.imdb.com/title/tt0076245/&lt;/a&gt;\n\nEnglish audio; English, Spanish and Portuguese subtitles\n\nPosted originally at KG by zoneyoutwonk\n\nFred Zinnemann - Julia (1977)","torrent":{"xt":"urn:btih:a6cfb9a7210ec4790b54ab88507ce105df6ecf16","amp;dn":"Fred+Zinnemann+-+Julia+%281977%29","amp;tr":["udp%3A%2F%2Ftracker.openbittorrent.com%3A80","udp%3A%2F%2Fopen.demonii.com%3A1337","udp%3A%2F%2Ftracker.coppersurfer.tk%3A6969","udp%3A%2F%2Fexodus.desync.com%3A6969"],"infoHash":"a6cfb9a7210ec4790b54ab88507ce105df6ecf16","infoHashBuffer":{"type":"Buffer","data":[166,207,185,167,33,14,196,121,11,84,171,136,80,124,225,5,223,110,207,22]},"announce":[],"urlList":[]}}